# xmcd
#
# Track frame offsets:
#	150
#	18089
#	31808
#	52470
#	67267
#	81479
#	94945
#	110264
#	120322
#	140333
#	151777
#	163403
#	175488
#	191789
#
# Disc length: 2768 seconds
#
# Revision: 0
# Processed by: cddbd v1.4PL0 Copyright (c) Steve Scherf et al.
# Submitted via: dBpowerAMP V4.0
#
DISCID=c40ace0e
DTITLE=John Lee Hooker - I'm in the Mood [cd 2 of 3]
DYEAR=1999
DGENRE=Blues
TTITLE0=Wednesday Evening Blues
TTITLE1=You're Gonna Miss Me When I'm Gone
TTITLE2=She Loves My Best Friend
TTITLE3=Moanin' Blues
TTITLE4=The Hobo
TTITLE5=Maudie
TTITLE6=Tupelo
TTITLE7=Want Ad Blues
TTITLE8=I Left My Baby
TTITLE9=Hard Headed Woman
TTITLE10=Will the Circle be Unbroken
TTITLE11=I'm Mad Again
TTITLE12=Process
TTITLE13=Thelma
EXTD=
EXTT0=
EXTT1=
EXTT2=
EXTT3=
EXTT4=
EXTT5=
EXTT6=
EXTT7=
EXTT8=
EXTT9=
EXTT10=
EXTT11=
EXTT12=
EXTT13=
PLAYORDER=
